<?xml version="1.0" encoding="utf-8"?>
<!-- Generator: Adobe Illustrator 19.1.0, SVG Export Plug-In . SVG Version: 6.00 Build 0)  -->
<svg version="1.1" id="Layer_1" xmlns="http://www.w3.org/2000/svg" xmlns:xlink="http://www.w3.org/1999/xlink" x="0px" y="0px"
	 viewBox="0 0 278.5 98.9" style="enable-background:new 0 0 278.5 98.9;" xml:space="preserve">
<g>
	<g>
		<polygon style="fill-rule:evenodd;clip-rule:evenodd;fill:#C41E3A;" points="129.7,67.1 129.7,72 135.9,72 135.9,97.5 141.7,97.5 
			141.7,72 147.9,72 147.9,67.1 		"/>
		<path style="fill-rule:evenodd;clip-rule:evenodd;fill:#C41E3A;" d="M160.3,73L160.3,73l3.5,13.2h-7.1L160.3,73z M147.9,97.5h5.8
			l1.8-6.6h9.6l1.7,6.6h5.8l-8.6-30.3h-7.2L147.9,97.5z"/>
		<path style="fill-rule:evenodd;clip-rule:evenodd;fill:#C41E3A;" d="M182.3,97.5V85.1h5l5.7,12.4h6.4l-6.7-13.5
			c3.7-1.1,5.6-4.1,5.5-7.8c0-5-2.8-9-9.7-9h-12.1v30.3H182.3z M182.3,71.8h5.3c3.2,0,4.9,1.4,4.9,4.3c0,2.9-1.4,4.3-5.9,4.3h-4.3
			V71.8z"/>
		<path style="fill-rule:evenodd;clip-rule:evenodd;fill:#C41E3A;" d="M226.4,74.4c-1.4-4.5-5-7.7-11-7.7c-9.7,0-12.7,8.3-12.7,16.1
			c0,8.6,3.8,15.1,12.1,15.1c3.2,0,5.5-0.8,7.9-3.5v3.1h4.2V82.1h-11.3V87h5.8c-0.1,3.5-2.6,6-6.3,6c-4,0-6.4-4-6.4-10.4
			c0-6.7,2.1-11,6.4-11c3,0,4.7,1.3,6.1,4.3L226.4,74.4z"/>
		<polygon style="fill-rule:evenodd;clip-rule:evenodd;fill:#C41E3A;" points="254.4,97.5 254.4,92.7 239.7,92.7 239.7,84.2 
			250.1,84.2 250.1,79.3 239.7,79.3 239.7,72.1 254,72.1 254,67.2 233.9,67.2 233.9,97.5 		"/>
		<polygon style="fill-rule:evenodd;clip-rule:evenodd;fill:#C41E3A;" points="257.4,67.1 257.4,72 263.6,72 263.6,97.5 269.4,97.5 
			269.4,72 275.6,72 275.6,67.1 		"/>
		<path style="fill-rule:evenodd;clip-rule:evenodd;fill:#231F20;" d="M136.7,31.5c-1.8-4.4-5.8-6.9-10.7-6.9
			c-5.3,0-9.8,3.1-9.8,8.5c0,9.3,15.6,8.2,15.6,14.1c0,2.9-2.2,4-5.1,4c-3.4,0-5.2-1.9-6.6-4.7l-4.8,2.1c1.7,4.4,6.4,7.2,11.3,7.2
			c6.7,0,10.6-3.1,10.6-9.3c0-9.8-15.6-8.7-15.6-14c0-2.4,1.8-3.4,4.3-3.4c2.7,0,4.5,1.6,5.4,4L136.7,31.5z"/>
		<path style="fill-rule:evenodd;clip-rule:evenodd;fill:#231F20;" d="M160.4,40.3c0,7.1-2.2,10.7-6.9,10.7c-4.8,0-7-3.6-6.9-10.7
			c0-7.1,2.2-10.7,6.9-10.7C158.2,29.5,160.4,33.1,160.4,40.3z M166.2,40.3c0-9.9-4.5-15.6-12.7-15.6c-8.3,0-12.7,5.7-12.7,15.6
			c0,9.9,4.5,15.6,12.7,15.6C161.7,55.8,166.2,50.2,166.2,40.3z"/>
		<path style="fill-rule:evenodd;clip-rule:evenodd;fill:#231F20;" d="M188.5,44.3c0,4.9-1.9,6.6-5.8,6.6c-3.9,0-5.8-1.7-5.8-6.6
			V25.1H171v19c0,8.9,5.5,11.8,11.6,11.8c6.2,0,11.6-2.9,11.6-11.8v-19h-5.8V44.3z"/>
		<path style="fill-rule:evenodd;clip-rule:evenodd;fill:#231F20;" d="M206.9,55.4V43.1h5l5.7,12.4h6.4l-6.7-13.5
			c3.7-1.1,5.6-4.1,5.5-7.8c0-5-2.8-9-9.7-9h-12.1v30.3H206.9z M206.9,29.8h5.3c3.2,0,4.9,1.4,4.9,4.3c0,2.9-1.4,4.3-5.9,4.3h-4.3
			V29.8z"/>
		<path style="fill-rule:evenodd;clip-rule:evenodd;fill:#231F20;" d="M249.9,32.6c-1.4-5.4-4.8-8-10.6-8c-7.7,0-12.2,5.7-12.2,15.6
			c0,9.9,4.5,15.6,12.2,15.6c5.5,0,9.5-2.7,11.3-7.9l-5.4-1.4c-1.7,3.6-3.3,4.5-5.9,4.5c-4.4,0-6.5-3.6-6.4-10.7
			c0-7.1,2.4-10.7,6.2-10.7c2.9,0,4.7,1.8,5.5,4.4L249.9,32.6z"/>
		<polygon style="fill-rule:evenodd;clip-rule:evenodd;fill:#231F20;" points="275.6,55.4 275.6,50.5 260.9,50.5 260.9,42.1 
			271.2,42.1 271.2,37.2 260.9,37.2 260.9,30 275.1,30 275.1,25.1 255.1,25.1 255.1,55.4 		"/>
		<g>
			<path style="fill-rule:evenodd;clip-rule:evenodd;fill:#231F20;" d="M116.8,93.5L116.8,93.5l4.4-1.2v2.4L116.8,93.5z M125,97.6
				v-1.9l-2.2-0.6v-3.2l2.2-0.6v-1.9l-10.1,2.9v2.4L125,97.6z"/>
			<polygon style="fill-rule:evenodd;clip-rule:evenodd;fill:#231F20;" points="125.1,84.7 117.9,84.7 117.9,84.7 125.1,80.6 
				125.1,78.7 115,78.7 115,80.5 121.9,80.5 121.9,80.5 115,84.5 115,86.5 125.1,86.5 			"/>
			<path style="fill-rule:evenodd;clip-rule:evenodd;fill:#231F20;" d="M125,75.2v-3.3c0-2.7-1.5-4.5-5.1-4.5
				c-3.6,0-5.1,1.9-5.1,4.5v3.3H125z M116.5,73.3V72c0-2.2,1.6-2.7,3.4-2.7c1.8,0,3.4,0.5,3.4,2.7v1.3H116.5z"/>
		</g>
	</g>
	<g>
		<polygon style="fill:#FFFFFF;" points="74.8,6.3 9.5,6.3 9.5,49.2 9.5,92.2 52.4,92.2 95.4,92.2 95.4,26.8 		"/>
		<polygon style="fill:#FFFFFF;" points="78.5,23.1 91.6,23.1 78.5,10 		"/>
		<path style="fill:#C41E3A;" d="M52.4,83.3c-18.8,0-34.1-15.3-34.1-34.1s15.3-34.1,34.1-34.1s34.1,15.3,34.1,34.1
			S71.2,83.3,52.4,83.3z M52.4,20.4c-15.9,0-28.8,12.9-28.8,28.8s12.9,28.8,28.8,28.8s28.8-12.9,28.8-28.8S68.3,20.4,52.4,20.4z"/>
		<path style="fill:#C41E3A;" d="M52.4,71.2c-12.1,0-21.9-9.8-21.9-21.9s9.8-21.9,21.9-21.9s21.9,9.8,21.9,21.9S64.5,71.2,52.4,71.2
			z M52.4,32.6c-9.2,0-16.7,7.5-16.7,16.7s7.5,16.7,16.7,16.7s16.7-7.5,16.7-16.7S61.6,32.6,52.4,32.6z"/>
		<circle style="fill:#C41E3A;" cx="52.4" cy="49.2" r="8.7"/>
		<path style="fill:#231F20;" d="M77,1L77,1h-3.7H4.2v48.2v48.2h48.2h48.2V28.4v-3.7v0L77,1z M78.5,10l13.1,13.1H78.5V10z
			 M95.3,92.2l-42.9,0l-42.9,0V49.2V6.3h63.8l0,22.1l22.1,0V92.2z"/>
	</g>
</g>
</svg>
