<?xml version="1.0" encoding="utf-8"?>
<!-- Generator: Adobe Illustrator 22.0.0, SVG Export Plug-In . SVG Version: 6.00 Build 0)  -->
<svg version="1.1" id="Capa_1" xmlns="http://www.w3.org/2000/svg" xmlns:xlink="http://www.w3.org/1999/xlink" x="0px" y="0px"
	 viewBox="0 0 324.5 128.6" style="enable-background:new 0 0 324.5 128.6;" xml:space="preserve">
<g>
	<polygon style="fill-rule:evenodd;clip-rule:evenodd;fill:#FFFFFF;" points="153,86.1 153,91.7 160,91.7 160,120.5 166.6,120.5 
		166.6,91.7 173.6,91.7 173.6,86.1 	"/>
	<path style="fill-rule:evenodd;clip-rule:evenodd;fill:#FFFFFF;" d="M187.6,92.7L187.6,92.7l4,14.9h-8L187.6,92.7z M173.5,120.5
		h6.5l2-7.4H193l1.9,7.4h6.5l-9.8-34.4h-8.2L173.5,120.5z"/>
	<path style="fill-rule:evenodd;clip-rule:evenodd;fill:#FFFFFF;" d="M212.6,120.5v-14h5.7l6.5,14h7.3l-7.6-15.3
		c4.2-1.2,6.3-4.6,6.3-8.9c0-5.7-3.2-10.2-11-10.2H206v34.4H212.6z M212.6,91.5h6c3.6,0,5.6,1.6,5.6,4.9c0,3.2-1.6,4.9-6.7,4.9h-4.9
		V91.5z"/>
	<path style="fill-rule:evenodd;clip-rule:evenodd;fill:#FFFFFF;" d="M262.5,94.4c-1.6-5-5.6-8.8-12.5-8.8c-11,0-14.3,9.4-14.3,18.2
		c0,9.7,4.3,17.1,13.7,17.1c3.6,0,6.2-1,9-4v3.5h4.8v-17.4h-12.9v5.5h6.5c-0.1,4-2.9,6.8-7.2,6.8c-4.6,0-7.3-4.6-7.3-11.8
		c0-7.6,2.4-12.5,7.2-12.5c3.4,0,5.3,1.4,6.9,4.9L262.5,94.4z"/>
	<polygon style="fill-rule:evenodd;clip-rule:evenodd;fill:#FFFFFF;" points="294.3,120.6 294.3,115.1 277.6,115.1 277.6,105.5 
		289.4,105.5 289.4,99.9 277.6,99.9 277.6,91.7 293.8,91.7 293.8,86.2 271,86.2 271,120.6 	"/>
	<polygon style="fill-rule:evenodd;clip-rule:evenodd;fill:#FFFFFF;" points="297.7,86.1 297.7,91.7 304.7,91.7 304.7,120.5 
		311.3,120.5 311.3,91.7 318.3,91.7 318.3,86.1 	"/>
	<path style="fill-rule:evenodd;clip-rule:evenodd;fill:#C41E3A;" d="M160.9,45.8c-2-5-6.6-7.8-12.1-7.8c-6,0-11.1,3.5-11.1,9.6
		c0,10.6,17.7,9.2,17.7,16c0,3.3-2.5,4.6-5.8,4.6c-3.9,0-5.9-2.1-7.5-5.4l-5.4,2.4c2,5,7.2,8.1,12.9,8.1c7.6,0,12.1-3.5,12.1-10.6
		c0-11.1-17.7-9.9-17.7-15.8c0-2.7,2-3.8,4.9-3.8c3.1,0,5.1,1.8,6.1,4.5L160.9,45.8z"/>
	<path style="fill-rule:evenodd;clip-rule:evenodd;fill:#C41E3A;" d="M187.8,55.7c0,8-2.5,12.1-7.9,12.1c-5.4,0-8-4.1-7.9-12.1
		c0-8.1,2.5-12.1,7.9-12.1C185.3,43.5,187.8,47.6,187.8,55.7z M194.3,55.7c0-11.2-5-17.7-14.4-17.7c-9.4,0-14.4,6.4-14.4,17.7
		c0,11.2,5,17.7,14.4,17.7C189.3,73.4,194.3,66.9,194.3,55.7z"/>
	<path style="fill-rule:evenodd;clip-rule:evenodd;fill:#C41E3A;" d="M219.6,60.3c0,5.6-2.2,7.5-6.6,7.5c-4.4,0-6.6-2-6.6-7.5V38.5
		h-6.6V60c0,10.1,6.2,13.3,13.2,13.3c7,0,13.2-3.3,13.2-13.3V38.5h-6.6V60.3z"/>
	<path style="fill-rule:evenodd;clip-rule:evenodd;fill:#C41E3A;" d="M240.5,72.9v-14h5.7l6.5,14h7.3l-7.6-15.3
		c4.2-1.2,6.3-4.6,6.3-8.9c0-5.7-3.2-10.2-11-10.2h-13.7v34.4H240.5z M240.5,43.8h6c3.6,0,5.6,1.6,5.6,4.9c0,3.2-1.6,4.9-6.7,4.9
		h-4.9V43.8z"/>
	<path style="fill-rule:evenodd;clip-rule:evenodd;fill:#C41E3A;" d="M289.2,47.1c-1.6-6.1-5.4-9-12-9c-8.8,0-13.8,6.4-13.8,17.7
		c0,11.2,5,17.7,13.8,17.7c6.3,0,10.8-3,12.8-9l-6.1-1.6c-2,4-3.8,5.1-6.7,5.1c-5,0-7.3-4.1-7.2-12.1c0-8.1,2.7-12.1,7-12.1
		c3.2,0,5.3,2,6.2,5L289.2,47.1z"/>
	<polygon style="fill-rule:evenodd;clip-rule:evenodd;fill:#C41E3A;" points="318.3,72.9 318.3,67.4 301.6,67.4 301.6,57.7 
		313.4,57.7 313.4,52.2 301.6,52.2 301.6,44 317.8,44 317.8,38.5 295,38.5 295,72.9 	"/>
	<g>
		<path style="fill-rule:evenodd;clip-rule:evenodd;fill:#C41E3A;" d="M138.4,116L138.4,116l5-1.3v2.7L138.4,116z M147.6,120.7v-2.2
			l-2.5-0.7v-3.6l2.5-0.6v-2.2l-11.5,3.3v2.7L147.6,120.7z"/>
		<polygon style="fill-rule:evenodd;clip-rule:evenodd;fill:#C41E3A;" points="147.8,106.1 139.6,106.1 139.6,106 147.8,101.4 
			147.8,99.2 136.3,99.2 136.3,101.3 144.1,101.3 144.1,101.3 136.3,105.9 136.3,108.1 147.8,108.1 		"/>
		<path style="fill-rule:evenodd;clip-rule:evenodd;fill:#C41E3A;" d="M147.6,95.3v-3.8c0-3-1.7-5.1-5.7-5.1c-4,0-5.7,2.1-5.7,5.1
			v3.8H147.6z M138,93.1v-1.5c0-2.5,1.8-3.1,3.9-3.1c2,0,3.9,0.6,3.9,3.1v1.5H138z"/>
	</g>
</g>
<g>
	<polygon style="fill:#FFFFFF;" points="96.2,30.7 113.1,30.7 96.2,13.8 	"/>
	<g>
		<polygon style="fill:#FFFFFF;" points="89.4,37.5 89.4,8.9 7,8.9 7,64.4 7,119.9 62.5,119.9 117.9,119.9 117.9,37.5 		"/>
		<polygon style="fill:#FFFFFF;" points="96.2,30.7 113.1,30.7 96.2,13.8 		"/>
	</g>
	<g>
		<path style="fill:#C41E3A;" d="M51.2,64.5c0,6.2,5.1,11.3,11.3,11.3c6.2,0,11.3-5.1,11.3-11.3c0-6.2-5.1-11.3-11.3-11.3
			C56.2,53.2,51.2,58.2,51.2,64.5z"/>
		<path style="fill:#C41E3A;" d="M18.4,64.5c0,24.3,19.8,44,44,44c24.3,0,44-19.8,44-44c0-10.2-3.5-19.5-9.3-27l-7.8,0l0-7.8
			c-7.5-5.8-16.8-9.3-27-9.3C38.1,20.4,18.4,40.2,18.4,64.5z M99.7,64.5c0,20.5-16.7,37.2-37.2,37.2S25.2,85,25.2,64.5
			s16.7-37.2,37.2-37.2S99.7,43.9,99.7,64.5z"/>
		<path style="fill:#C41E3A;" d="M34.1,64.5c0,15.6,12.7,28.4,28.4,28.4s28.4-12.7,28.4-28.4S78.1,36.1,62.4,36.1
			S34.1,48.8,34.1,64.5z M84,64.5C84,76.4,74.3,86,62.4,86s-21.6-9.7-21.6-21.6c0-11.9,9.7-21.6,21.6-21.6S84,52.6,84,64.5z"/>
	</g>
</g>
</svg>
