<?xml version="1.0" encoding="utf-8"?>
<!-- Generator: Adobe Illustrator 19.1.0, SVG Export Plug-In . SVG Version: 6.00 Build 0)  -->
<svg version="1.1" id="Layer_1" xmlns="http://www.w3.org/2000/svg" xmlns:xlink="http://www.w3.org/1999/xlink" x="0px" y="0px"
	 viewBox="0 0 101.7 100.9" style="enable-background:new 0 0 101.7 100.9;" xml:space="preserve">
<path style="fill:#C41E3A;" d="M50.8,98.9c-26.7,0-48.5-21.7-48.5-48.5S24.1,2,50.8,2s48.5,21.7,48.5,48.5S77.6,98.9,50.8,98.9z
	 M50.8,9.5c-22.6,0-41,18.4-41,41s18.4,41,41,41s41-18.4,41-41S73.4,9.5,50.8,9.5z"/>
<path style="fill:#C41E3A;" d="M50.8,81.7c-17.2,0-31.2-14-31.2-31.2s14-31.2,31.2-31.2s31.2,14,31.2,31.2S68.1,81.7,50.8,81.7z
	 M50.8,26.7c-13.1,0-23.7,10.6-23.7,23.7s10.6,23.7,23.7,23.7s23.7-10.6,23.7-23.7S63.9,26.7,50.8,26.7z"/>
<circle style="fill:#C41E3A;" cx="50.8" cy="50.5" r="12.4"/>
</svg>
